<svg class="icon" viewBox="0 0 1024 1024" xmlns="http://www.w3.org/2000/svg" width="200" height="200"><path d="M512 68.267c171.179 0 304.299 141.107 324.062 322.867l3.686 34.68a7354.166 7354.166 0 0 1 3.806 37.12l2.56 25.992c5.052 51.439 10.104 106.052 14.95 161.075l9.217 107.554a34.133 34.133 0 0 1-67.738 8.09l-.785-8.516-5.683-66.765-.939-10.838a18778.97 18778.97 0 0 0-12.646-139.332l-4.301-44.595a9337.89 9337.89 0 0 0-9.984-97.092C751.957 249.225 645.666 136.533 512 136.533c-138.172 0-240.435 105.131-256.17 261.7l-5.923 59.939-4.898 50.858c-2.475 25.822-4.95 52.14-7.407 78.712L225.69 718.643l-3.96 44.664a34.133 34.133 0 0 1-68.13-3.397l.734-9.42 7.919-88.696 4.915-53.675c4.915-53.52 9.899-106.393 14.797-156.57l4.488-45.567 1.451-14.575C206.967 201.694 336.725 68.267 512 68.267z"/><path d="M921.6 753.084a34.133 34.133 0 0 1 2.56 68.181l-2.56.085H102.4a34.133 34.133 0 0 1-2.56-68.18l2.56-.086h819.2z"/><path d="M640 767.061a34.133 34.133 0 0 1 34.133 34.134c0 85.282-68.71 154.538-153.6 154.538s-153.6-69.256-153.6-154.538a34.133 34.133 0 1 1 68.267 0c0 47.701 38.263 86.272 85.333 86.272 45.824 0 83.32-36.557 85.248-82.518l.086-3.754A34.133 34.133 0 0 1 640 767.06z"/><path d="M349.867 435.2a34.133 34.133 0 0 1 32.375 35.806l-10.718 211.66H303.19l10.872-215.073a34.133 34.133 0 0 1 35.806-32.393z"/></svg>