<svg class="icon" viewBox="0 0 1024 1024" xmlns="http://www.w3.org/2000/svg" width="200" height="200"><path d="M696.815 119.467H326.74a68.267 68.267 0 0 0-59.306 34.44L82.415 478.174a68.267 68.267 0 0 0 0 67.652l185.02 324.267a68.267 68.267 0 0 0 59.306 34.44h370.074a68.267 68.267 0 0 0 59.255-34.372l185.464-324.267a68.267 68.267 0 0 0 0-67.788L756.07 153.839a68.267 68.267 0 0 0-59.238-34.372zM326.74 187.733h370.074L882.278 512 696.815 836.267H326.74L141.705 512 326.74 187.733z"/><path d="M512 358.4a153.6 153.6 0 1 0 0 307.2 153.6 153.6 0 0 0 0-307.2zm0 68.267a85.333 85.333 0 1 1 0 170.666 85.333 85.333 0 0 1 0-170.666z"/></svg>